<svg width="20" height="20" viewBox="0 0 20 20" fill="none" xmlns="http://www.w3.org/2000/svg">
    <path d="M18.307 15.2752C18.307 15.5752 18.2404 15.8835 18.0987 16.1835C17.957 16.4835 17.7737 16.7669 17.532 17.0335C17.1237 17.4835 16.6737 17.8085 16.1654 18.0169C15.6654 18.2252 15.1237 18.3335 14.5404 18.3335C13.6904 18.3335 12.782 18.1335 11.8237 17.7252C10.8654 17.3169 9.90703 16.7669 8.95703 16.0752C7.99869 15.3752 7.09036 14.6002 6.22369 13.7419C5.36536 12.8752 4.59036 11.9669 3.89869 11.0169C3.21536 10.0669 2.66536 9.11687 2.26536 8.1752C1.86536 7.2252 1.66536 6.31687 1.66536 5.4502C1.66536 4.88354 1.76536 4.34187 1.96536 3.84187C2.16536 3.33354 2.48203 2.86687 2.92369 2.4502C3.45703 1.9252 4.04036 1.66687 4.65703 1.66687C4.89036 1.66687 5.12369 1.71687 5.33203 1.81687C5.54869 1.91687 5.74036 2.06687 5.89036 2.28354L7.82369 5.00854C7.97369 5.21687 8.08203 5.40854 8.15703 5.59187C8.23203 5.76687 8.27369 5.94187 8.27369 6.1002C8.27369 6.3002 8.21536 6.5002 8.09869 6.69187C7.99036 6.88354 7.83203 7.08354 7.63203 7.28354L6.99869 7.94187C6.90703 8.03354 6.86536 8.14187 6.86536 8.2752C6.86536 8.34187 6.87369 8.4002 6.89036 8.46687C6.91536 8.53354 6.94036 8.58354 6.95703 8.63354C7.10703 8.90854 7.36536 9.26687 7.73203 9.7002C8.10703 10.1335 8.50703 10.5752 8.94036 11.0169C9.39036 11.4585 9.82369 11.8669 10.2654 12.2419C10.6987 12.6085 11.057 12.8585 11.3404 13.0085C11.382 13.0252 11.432 13.0502 11.4904 13.0752C11.557 13.1002 11.6237 13.1085 11.6987 13.1085C11.8404 13.1085 11.9487 13.0585 12.0404 12.9669L12.6737 12.3419C12.882 12.1335 13.082 11.9752 13.2737 11.8752C13.4654 11.7585 13.657 11.7002 13.8654 11.7002C14.0237 11.7002 14.1904 11.7335 14.3737 11.8085C14.557 11.8835 14.7487 11.9919 14.957 12.1335L17.7154 14.0919C17.932 14.2419 18.082 14.4169 18.1737 14.6252C18.257 14.8335 18.307 15.0419 18.307 15.2752Z"
          stroke="currentColor" stroke-width="1.25" stroke-miterlimit="10"/>
</svg>