<svg width="261" height="272" viewBox="0 0 261 272" fill="none" xmlns="http://www.w3.org/2000/svg">
<path d="M132.266 269.575C196.451 269.575 248.486 217.54 248.486 153.126C248.486 88.7124 196.222 36.677 132.266 36.677C68.0815 36.677 16.0461 88.7124 16.0461 153.126C16.0461 217.54 68.0815 269.575 132.266 269.575Z" fill="#383838"/>
<path d="M240.005 77.0213C245.195 77.0213 249.403 72.8135 249.403 67.6228C249.403 62.4322 245.195 58.2244 240.005 58.2244C234.814 58.2244 230.606 62.4322 230.606 67.6228C230.606 72.8135 234.814 77.0213 240.005 77.0213Z" fill="#F1F3F9"/>
<path d="M253.758 40.3445C257.303 40.3445 260.177 37.4708 260.177 33.926C260.177 30.3812 257.303 27.5076 253.758 27.5076C250.213 27.5076 247.34 30.3812 247.34 33.926C247.34 37.4708 250.213 40.3445 253.758 40.3445Z" fill="#3A3A3A"/>
<path d="M6.41846 93.0676C9.96328 93.0676 12.8369 90.194 12.8369 86.6492C12.8369 83.1044 9.96328 80.2307 6.41846 80.2307C2.87364 80.2307 0 83.1044 0 86.6492C0 90.194 2.87364 93.0676 6.41846 93.0676Z" fill="#3A3A3A"/>
<path d="M41.7198 271.409C48.303 271.409 53.6398 266.072 53.6398 259.489C53.6398 252.906 48.303 247.569 41.7198 247.569C35.1366 247.569 29.7998 252.906 29.7998 259.489C29.7998 266.072 35.1366 271.409 41.7198 271.409Z" fill="#3A3A3A"/>
<path d="M129.182 245.816C181.983 245.816 224.996 203.061 224.996 150.26C224.996 97.4599 181.983 54.7046 129.182 54.7046C76.382 54.7046 33.3691 97.4599 33.3691 150.26C33.3691 203.061 76.1245 245.816 129.182 245.816Z" fill="url(#paint0_linear_401_29249)"/>
<path d="M109.154 145.585L113.635 141.094C114.942 139.784 114.942 137.538 113.635 136.229C112.328 134.919 110.088 134.919 108.781 136.229L104.3 140.72L99.8191 136.229C98.5122 134.919 96.2717 134.919 94.9648 136.229C93.6579 137.538 93.6579 139.784 94.9648 141.094L99.4457 145.585L94.9648 150.076C93.6579 151.386 93.6579 153.631 94.9648 154.941C95.7116 155.69 96.4584 155.877 97.392 155.877C98.3255 155.877 99.0723 155.503 99.8191 154.941L104.3 150.45L108.781 154.941C109.528 155.69 110.275 155.877 111.208 155.877C112.142 155.877 112.888 155.503 113.635 154.941C114.942 153.631 114.942 151.386 113.635 150.076L109.154 145.585Z" fill="#333333"/>
<path d="M156.686 145.585L161.665 141.094C163.117 139.784 163.117 137.538 161.665 136.229C160.213 134.919 157.723 134.919 156.271 136.229L151.292 140.72L146.314 136.229C144.861 134.919 142.372 134.919 140.92 136.229C139.468 137.538 139.468 139.784 140.92 141.094L145.899 145.585L140.92 150.076C139.468 151.386 139.468 153.631 140.92 154.941C141.75 155.69 142.579 155.877 143.617 155.877C144.654 155.877 145.484 155.503 146.314 154.941L151.292 150.45L156.271 154.941C157.101 155.69 157.931 155.877 158.968 155.877C160.005 155.877 160.835 155.503 161.665 154.941C163.117 153.631 163.117 151.386 161.665 150.076L156.686 145.585Z" fill="#333333"/>
<path fill-rule="evenodd" clip-rule="evenodd" d="M26.9031 55.1348C27.4404 53.0211 29.5896 51.7431 31.7033 52.2804L46.6496 56.0795C48.7633 56.6168 50.0413 58.7659 49.504 60.8797C48.9667 62.9935 46.8176 64.2715 44.7038 63.7342L29.7576 59.935C27.6438 59.3977 26.3658 57.2486 26.9031 55.1348Z" fill="#737373"/>
<path fill-rule="evenodd" clip-rule="evenodd" d="M39.6028 13.1011C41.4073 11.8762 43.8632 12.3461 45.0881 14.1507L62.9553 40.4733C64.1802 42.2778 63.7103 44.7337 61.9057 45.9585C60.1012 47.1834 57.6453 46.7135 56.4204 44.909L38.5532 18.5864C37.3283 16.7818 37.7982 14.326 39.6028 13.1011Z" fill="#737373"/>
<path fill-rule="evenodd" clip-rule="evenodd" d="M72.7467 1.22933C74.8862 0.805853 76.9638 2.19696 77.3873 4.33645L83.5645 35.5448C83.9879 37.6843 82.5968 39.7619 80.4574 40.1854C78.3179 40.6089 76.2402 39.2178 75.8167 37.0783L69.6395 5.86999C69.2161 3.7305 70.6072 1.6528 72.7467 1.22933Z" fill="#737373"/>
<rect x="103.369" y="177" width="53" height="7" fill="#333333"/>
<path d="M135.246 178.8H144.415V190.262C144.415 192.794 142.363 194.846 139.831 194.846C137.299 194.846 135.246 192.794 135.246 190.262V178.8Z" fill="#333333"/>
<path d="M255.808 78.0869C254.831 82.2054 253.365 86.1654 251.573 89.8087C246.849 98.3625 239.844 105.332 231.048 109.609C221.926 114.203 211.175 115.787 200.261 113.728C174.849 108.5 158.397 84.423 163.772 59.5537C169.148 34.6844 193.745 18.6857 219.319 23.913C228.442 25.8138 236.423 30.0907 243.102 36.2684C254.179 47.3567 258.903 63.0386 255.808 78.0869Z" fill="#B6349A"/>
<path d="M209.746 37.8228C213.919 37.8228 216.883 41.6887 216.604 46.1743V46.1851L216.603 46.1948L214.74 69.3081C214.576 72.0526 212.458 74.5005 209.746 74.5005C207.033 74.5003 204.916 72.0525 204.753 69.3081L202.889 46.1948L202.888 46.186V46.1763C202.609 41.8461 205.56 37.8229 209.746 37.8228Z" fill="white" stroke="white" stroke-width="2.29231"/>
<path d="M209.746 83.6689C213.563 83.6689 216.623 86.7293 216.623 90.5459C216.623 94.3627 213.563 97.4229 209.746 97.4229C205.929 97.4227 202.869 94.3626 202.869 90.5459C202.869 86.7294 205.929 83.6691 209.746 83.6689Z" fill="white" stroke="white" stroke-width="2.29231"/>
<defs>
<linearGradient id="paint0_linear_401_29249" x1="56.7204" y1="94.3994" x2="88.8054" y2="119.198" gradientUnits="userSpaceOnUse">
<stop stop-color="#9A9A9A"/>
<stop offset="0.9942" stop-color="#717171"/>
</linearGradient>
</defs>
</svg>
