<svg width="125" height="31" viewBox="0 0 125 31" fill="none" xmlns="http://www.w3.org/2000/svg">
<path fill-rule="evenodd" clip-rule="evenodd" d="M15.3129 30.72C22.0248 30.72 25.7544 30.72 28.1908 28.2764C30.6286 25.8327 30.6286 22.0905 30.6286 15.36C30.6286 8.62949 30.6286 4.88867 28.1908 2.44503C25.7544 0 22.0248 0 15.3129 0C8.60244 0 4.87272 0 2.43497 2.44503C0 4.88727 0 8.63095 0 15.36C0 22.0905 0 25.8327 2.43497 28.2764C4.87272 30.7186 8.60244 30.72 15.3129 30.72ZM7.53323 13.3688L16.7775 13.387L17.301 11.1053L25.1809 11.0788L24.255 13.3507L16.7845 13.387L16.268 15.6686L21.7867 15.6784L20.975 17.96L15.7431 17.9503L15.2293 20.2291H19.3921L18.5094 22.5206H16.9112C15.7584 22.5206 14.9189 21.3797 15.2168 20.2291L7.53184 20.2124V17.9307L15.7431 17.9475L16.2568 15.6686L7.53184 15.6518L7.53323 13.3688ZM7.53323 8.79708L15.9547 8.81526C16.907 8.81526 17.6059 9.73824 17.3873 10.699L17.2996 11.097L7.53184 11.0801L7.53323 8.79708ZM35.6549 19.9992H46.3173V16.9707H39.0239V15.4655H46.0485V12.4549H39.0239V11.0213H46.3173V7.99281H35.6549V19.9992ZM47.0061 17.7055C47.0061 19.2466 48.153 20.1784 50.1959 20.1784C52.1492 20.1784 53.2602 19.372 53.6007 18.0997H53.7799V19.9992H56.9338V14.8562C56.9338 12.3295 55.4106 10.7883 52.2567 10.7883C49.1924 10.7883 47.1853 12.3295 47.1853 14.7307V14.7666H50.5543V14.6949C50.5543 13.9423 50.8948 13.7272 52.0058 13.7272C53.2064 13.7272 53.6007 13.8706 53.6007 14.7845V14.9637L49.9271 15.3221C47.8842 15.5192 47.0061 16.4331 47.0061 17.7055ZM51.1994 17.8309C50.6797 17.8309 50.393 17.7771 50.393 17.4904C50.393 17.2933 50.5184 17.1858 50.8231 17.1499L53.5828 16.8274C53.4932 17.6338 52.8301 17.8309 51.1994 17.8309ZM62.7887 20.1784C59.599 20.1784 57.8966 18.9419 57.8966 16.8632V16.7915H61.2655V16.9707C61.2655 17.4725 61.5881 17.5263 62.8067 17.5263C63.9715 17.5263 64.1507 17.4008 64.1507 17.0962C64.1507 16.8095 64.0073 16.7378 63.1651 16.6482L60.5487 16.3615C58.6851 16.1643 57.6815 15.2863 57.6815 13.7631C57.6815 12.1682 58.9538 10.7883 62.3407 10.7883C65.4767 10.7883 67.1433 11.9173 67.1433 14.1394V14.2111H63.7743V14.1035C63.7743 13.6376 63.5951 13.4226 62.2332 13.4226C61.1401 13.4226 60.9967 13.5659 60.9967 13.9064C60.9967 14.1573 61.1401 14.2827 62.1974 14.3903L63.9894 14.5874C66.6236 14.8741 67.4659 15.7522 67.4659 17.2754C67.4659 18.9599 65.7814 20.1784 62.7887 20.1784ZM68.6333 23.0456H70.264C72.8983 23.0456 74.2781 22.4901 75.2458 20.3576L79.5287 10.9675H75.7655L74.4215 14.4799L73.8301 16.5944H73.5972L72.952 14.5157L71.393 10.9675H67.5581L71.8768 19.8917C71.7335 19.9634 71.5184 19.9992 71.2496 19.9992H68.6333V23.0456ZM83.2639 19.9992H79.8949V7.99281H84.4645L86.6687 12.9746L87.8514 16.0747H88.0843L89.2133 12.9746L91.3099 7.99281H95.8795V19.9992H92.5106V15.0354L92.636 13.0283H92.4031L91.7221 15.0354L89.9301 19.2824H85.8443L84.0524 15.0354L83.3714 13.0283H83.1384L83.2639 15.0354V19.9992ZM96.6886 17.7055C96.6886 19.2466 97.8355 20.1784 99.8784 20.1784C101.832 20.1784 102.943 19.372 103.283 18.0997H103.462V19.9992H106.616V14.8562C106.616 12.3295 105.093 10.7883 101.939 10.7883C98.8749 10.7883 96.8678 12.3295 96.8678 14.7307V14.7666H100.237V14.6949C100.237 13.9423 100.577 13.7272 101.688 13.7272C102.889 13.7272 103.283 13.8706 103.283 14.7845V14.9637L99.6096 15.3221C97.5667 15.5192 96.6886 16.4331 96.6886 17.7055ZM100.882 17.8309C100.362 17.8309 100.075 17.7771 100.075 17.4904C100.075 17.2933 100.201 17.1858 100.506 17.1499L103.265 16.8274C103.176 17.6338 102.513 17.8309 100.882 17.8309ZM110.984 19.9992H107.615V10.9675H110.769V13.333H110.948C111.199 11.8456 112.131 10.7883 113.923 10.7883C115.912 10.7883 116.7 12.0965 116.7 13.9064V15.6984H113.331V14.6411C113.331 13.8885 113.045 13.6197 112.167 13.6197C111.253 13.6197 110.984 13.8885 110.984 14.6053V19.9992ZM121.805 19.9992H124.171V16.9707H122.558C121.787 16.9707 121.572 16.7915 121.572 16.0747V13.7272H124.171V10.9675H121.572V9.40849H118.203V10.9675H116.877V13.7272H118.203V16.5586C118.203 18.9061 119.547 19.9992 121.805 19.9992Z" fill="#B6349A"/>
</svg>
