<svg xmlns="http://www.w3.org/2000/svg" width="24" height="24" viewBox="0 0 24 24" style="max-width: 100%; max-height: 100%; width: auto; height: auto; transform: scale(1);"><title fill="#212121" style="fill: rgb(33, 33, 33);">Show SVG Icon</title><g fill="none" stroke="#212121" stroke-linecap="round" stroke-linejoin="round" stroke-width="2" data-element-index="0" style="cursor: pointer; stroke: rgb(33, 33, 33);"><path d="M3.587 13.779c1.78 1.769 4.883 4.22 8.413 4.22c3.53 0 6.634-2.451 8.413-4.22c.47-.467.705-.7.854-1.159c.107-.327.107-.913 0-1.24c-.15-.458-.385-.692-.854-1.159C18.633 8.452 15.531 6 12 6c-3.53 0-6.634 2.452-8.413 4.221c-.47.467-.705.7-.854 1.159c-.107.327-.107.913 0 1.24c.15.458.384.692.854 1.159" data-element-index="1" style="cursor: pointer;"></path><path d="M10 12a2 2 0 1 0 4 0a2 2 0 0 0-4 0" data-element-index="2" style="cursor: pointer;"></path></g></svg>