<svg width="14" height="13" viewBox="0 0 14 13" fill="none" xmlns="http://www.w3.org/2000/svg">
<mask id="mask0_10676_2577" style="mask-type:luminance" maskUnits="userSpaceOnUse" x="0" y="7" width="11" height="6">
<path fill-rule="evenodd" clip-rule="evenodd" d="M0 7.97144H10.1225V12.7045H0V7.97144Z" fill="white"/>
</mask>
<g mask="url(#mask0_10676_2577)">
<path fill-rule="evenodd" clip-rule="evenodd" d="M5.06117 8.97146C3.2085 8.97146 0.999837 9.20946 0.999837 10.3461C0.999837 11.2475 2.3665 11.7048 5.06117 11.7048C7.75584 11.7048 9.1225 11.2428 9.1225 10.3328C9.1225 9.42946 7.75584 8.97146 5.06117 8.97146M5.06133 12.7048C3.67733 12.7048 0 12.7048 0 10.3461C0 7.97144 3.80933 7.97144 5.06133 7.97144C7.234 7.97144 10.1227 8.2161 10.1227 10.3328C10.1227 12.7048 6.31333 12.7048 5.06133 12.7048" fill="#212121"/>
</g>
<mask id="mask1_10676_2577" style="mask-type:luminance" maskUnits="userSpaceOnUse" x="10" y="7" width="4" height="4">
<path fill-rule="evenodd" clip-rule="evenodd" d="M10.5625 7.65552H13.3183V10.9739H10.5625V7.65552Z" fill="white"/>
</mask>
<g mask="url(#mask1_10676_2577)">
<path fill-rule="evenodd" clip-rule="evenodd" d="M11.9293 10.9739C11.7273 10.9739 11.5373 10.8505 11.462 10.6512C11.364 10.3932 11.494 10.1039 11.752 10.0065C12.3187 9.79187 12.3187 9.52987 12.3187 9.41787C12.3187 9.03987 11.8713 8.7812 10.9893 8.64987C10.716 8.60854 10.5273 8.35387 10.568 8.0812C10.6093 7.80787 10.8687 7.62454 11.1367 7.65987C12.9407 7.92987 13.3187 8.7652 13.3187 9.41787C13.3187 9.90387 13.1087 10.5619 12.1067 10.9412C12.0487 10.9632 11.9887 10.9739 11.9293 10.9739Z" fill="#212121"/>
</g>
<path fill-rule="evenodd" clip-rule="evenodd" d="M9.65575 6.08793C9.41042 6.08793 9.19642 5.90726 9.16109 5.65726C9.12309 5.38393 9.31309 5.13059 9.58642 5.09259C10.4184 4.97593 11.0464 4.25393 11.0478 3.41259C11.0478 2.57659 10.4491 1.87126 9.62575 1.73659C9.35309 1.69126 9.16842 1.43459 9.21309 1.16193C9.25775 0.889259 9.51575 0.705925 9.78709 0.749259C11.0971 0.963925 12.0478 2.08459 12.0478 3.41326C12.0451 4.74993 11.0471 5.89793 9.72575 6.08326C9.70242 6.08659 9.67909 6.08793 9.65575 6.08793Z" fill="#212121"/>
<path fill-rule="evenodd" clip-rule="evenodd" d="M5.06088 1.00002C3.72421 1.00002 2.63688 2.08735 2.63688 3.42335C2.63688 4.75935 3.72421 5.84669 5.06088 5.84669H5.08155C5.72422 5.84402 6.32955 5.59135 6.78355 5.13335C7.23821 4.67669 7.48688 4.06935 7.48422 3.42535C7.48422 2.08735 6.39688 1.00002 5.06088 1.00002V1.00002ZM5.06072 6.84667C3.17272 6.84667 1.63672 5.31067 1.63672 3.42333C1.63672 1.536 3.17272 0 5.06072 0C6.94805 0 8.48405 1.536 8.48405 3.42333C8.48805 4.33267 8.13539 5.19133 7.49272 5.838C6.85139 6.48533 5.99472 6.84333 5.08339 6.84667H5.06072Z" fill="#212121"/>
</svg>
